<svg width="24" height="24" viewBox="0 0 24 24" fill="none" xmlns="http://www.w3.org/2000/svg">
<path d="M22 22H2" stroke="#4E4B66" stroke-width="1.5" stroke-linecap="round"/>
<path d="M20.9999 22V6C20.9999 4.114 20.9999 3.172 20.4139 2.586C19.8279 2 18.8859 2 16.9999 2H14.9999C13.1139 2 12.1719 2 11.5859 2.586C11.1139 3.057 11.0219 3.76 11.0039 5" stroke="#4E4B66" stroke-width="1.5"/>
<path d="M15 22V9C15 7.114 15 6.172 14.414 5.586C13.828 5 12.886 5 11 5H7C5.114 5 4.172 5 3.586 5.586C3 6.172 3 7.114 3 9V22" stroke="#4E4B66" stroke-width="1.5"/>
<path d="M9 22V19M6 8H12M6 11H12M6 14H12" stroke="#4E4B66" stroke-width="1.5" stroke-linecap="round"/>
</svg>
