<svg width="30" height="31" viewBox="0 0 30 31" fill="none" xmlns="http://www.w3.org/2000/svg">
<g filter="url(#filter0_d_5942_1466)">
<path d="M25 22H5" stroke="#0F8ACF" stroke-width="1.5" stroke-linecap="round"/>
<path d="M24 22V6C24 4.114 24 3.172 23.4138 2.586C22.8275 2 21.8852 2 19.9984 2H17.9976C16.1108 2 15.1685 2 14.5822 2.586C14.11 3.057 14.018 3.76 14 5" fill="#0F8ACF"/>
<path d="M24 22V6C24 4.114 24 3.172 23.4138 2.586C22.8275 2 21.8852 2 19.9984 2H17.9976C16.1108 2 15.1685 2 14.5822 2.586C14.11 3.057 14.018 3.76 14 5" stroke="white" stroke-width="1.5"/>
<path d="M18 22V9C18 7.114 18 6.172 17.414 5.586C16.828 5 15.886 5 14 5H10C8.114 5 7.172 5 6.586 5.586C6 6.172 6 7.114 6 9V22" fill="#0F8ACF"/>
<path d="M18 22V9C18 7.114 18 6.172 17.414 5.586C16.828 5 15.886 5 14 5H10C8.114 5 7.172 5 6.586 5.586C6 6.172 6 7.114 6 9V22" stroke="white" stroke-width="1.5"/>
<path d="M12 21V18.2143M9 8H15M9 10.7857H15M9 13.5714H15" stroke="white" stroke-width="1.5" stroke-linecap="round"/>
</g>
<defs>
<filter id="filter0_d_5942_1466" x="-1" y="0" width="32" height="32" filterUnits="userSpaceOnUse" color-interpolation-filters="sRGB">
<feFlood flood-opacity="0" result="BackgroundImageFix"/>
<feColorMatrix in="SourceAlpha" type="matrix" values="0 0 0 0 0 0 0 0 0 0 0 0 0 0 0 0 0 0 127 0" result="hardAlpha"/>
<feOffset dy="4"/>
<feGaussianBlur stdDeviation="2"/>
<feComposite in2="hardAlpha" operator="out"/>
<feColorMatrix type="matrix" values="0 0 0 0 0 0 0 0 0 0 0 0 0 0 0 0 0 0 0.25 0"/>
<feBlend mode="normal" in2="BackgroundImageFix" result="effect1_dropShadow_5942_1466"/>
<feBlend mode="normal" in="SourceGraphic" in2="effect1_dropShadow_5942_1466" result="shape"/>
</filter>
</defs>
</svg>
