<svg width="15" height="19" viewBox="0 0 15 19" fill="none" xmlns="http://www.w3.org/2000/svg">
<path d="M0.9375 0H14.0625C14.3111 0 14.5496 0.0969684 14.7254 0.269573C14.9012 0.442178 15 0.676281 15 0.920381V18.5392C15.0001 18.6215 14.9777 18.7023 14.9352 18.7732C14.8927 18.8442 14.8316 18.9026 14.7583 18.9424C14.6849 18.9823 14.6021 19.0021 14.5183 18.9998C14.4345 18.9975 14.3528 18.9732 14.2819 18.9295L7.5 14.7537L0.718125 18.9286C0.64722 18.9723 0.565676 18.9966 0.481971 18.9989C0.398265 19.0012 0.315456 18.9815 0.242152 18.9417C0.168847 18.902 0.107725 18.8437 0.0651401 18.7729C0.0225551 18.7021 6.23164e-05 18.6214 0 18.5392V0.920381C0 0.676281 0.0987722 0.442178 0.274588 0.269573C0.450403 0.0969684 0.68886 0 0.9375 0Z" fill="#0F8ACF"/>
</svg>
