<svg width="18" height="20" viewBox="0 0 18 20" fill="none" xmlns="http://www.w3.org/2000/svg">
<path d="M0.5 7.99003L0.5 7.98968C0.499947 7.91349 0.517309 7.83829 0.550758 7.76983C0.584207 7.70137 0.63286 7.64146 0.693 7.59468L8.69296 1.37271L8.693 1.37268C8.78077 1.3044 8.8888 1.26733 9 1.26733C9.1112 1.26733 9.21923 1.3044 9.307 1.37268L9.30704 1.37271L17.307 7.59468C17.307 7.59469 17.307 7.5947 17.307 7.59471C17.3672 7.64149 17.4158 7.70139 17.4492 7.76983C17.4827 7.83829 17.5001 7.91349 17.5 7.98968V7.99003V18.5C17.5 18.6326 17.4473 18.7598 17.3536 18.8536C17.2598 18.9473 17.1326 19 17 19H1C0.867391 19 0.740214 18.9473 0.646447 18.8536C0.552679 18.7598 0.5 18.6326 0.5 18.5L0.5 7.99003ZM8 11H7.5V11.5V17.5V18H8H10H10.5V17.5V11.5V11H10H8Z" fill="#0F8ACF" stroke="#0F8ACF"/>
</svg>
