<svg width="19" height="19" viewBox="0 0 19 19" fill="none" xmlns="http://www.w3.org/2000/svg">
<g filter="url(#filter0_d_5942_1478)">
<path d="M18.1296 15.8333C18.6103 15.8333 19 16.2231 19 16.7037V17.2591C19 18.2206 18.2206 19 17.2591 19H10.4493C9.48783 19 8.70831 18.2206 8.70831 17.2591V16.7037C8.70831 16.2231 9.09811 15.8333 9.57875 15.8333H18.1296ZM17.259 6.33331C18.2206 6.33331 19 7.11275 19 8.07426V12.5879C19 13.0686 18.6103 13.4583 18.1296 13.4583H1.74095C0.779445 13.4583 0 12.6789 0 11.7174V7.20382C0 6.72303 0.389723 6.33331 0.870437 6.33331H17.259ZM8.55074 0C9.51217 0 10.2917 0.779445 10.2917 1.74095V3.08787C10.2917 3.56859 9.90189 3.95831 9.42125 3.95831H0.870512C0.389648 3.95831 0 3.56866 0 3.08787V1.74095C0 0.779445 0.779445 0 1.74095 0H8.55074Z" fill="#0F8ACF"/>
<path d="M18.1296 16.3333C18.3341 16.3333 18.5 16.4992 18.5 16.7037V17.2591C18.5 17.9444 17.9444 18.5 17.2591 18.5H10.4493C9.76396 18.5 9.20831 17.9444 9.20831 17.2591V16.7037C9.20831 16.4992 9.37425 16.3333 9.57875 16.3333H18.1296ZM17.259 6.83331C17.9444 6.83331 18.5 7.38891 18.5 8.07426V12.5879C18.5 12.7924 18.3341 12.9583 18.1296 12.9583H1.74095C1.05559 12.9583 0.5 12.4027 0.5 11.7174V7.20382C0.5 6.99915 0.665893 6.83331 0.870438 6.83331H17.259ZM8.55074 0.5C9.23604 0.5 9.79169 1.0556 9.79169 1.74095V3.08787C9.79169 3.29242 9.62578 3.45831 9.42125 3.45831H0.870512C0.665763 3.45831 0.5 3.29249 0.5 3.08787V1.74095C0.5 1.05559 1.05559 0.5 1.74095 0.5H8.55074Z" stroke="#0F8ACF"/>
</g>
<defs>
<filter id="filter0_d_5942_1478" x="-4" y="0" width="27" height="27" filterUnits="userSpaceOnUse" color-interpolation-filters="sRGB">
<feFlood flood-opacity="0" result="BackgroundImageFix"/>
<feColorMatrix in="SourceAlpha" type="matrix" values="0 0 0 0 0 0 0 0 0 0 0 0 0 0 0 0 0 0 127 0" result="hardAlpha"/>
<feOffset dy="4"/>
<feGaussianBlur stdDeviation="2"/>
<feComposite in2="hardAlpha" operator="out"/>
<feColorMatrix type="matrix" values="0 0 0 0 0 0 0 0 0 0 0 0 0 0 0 0 0 0 0.25 0"/>
<feBlend mode="normal" in2="BackgroundImageFix" result="effect1_dropShadow_5942_1478"/>
<feBlend mode="normal" in="SourceGraphic" in2="effect1_dropShadow_5942_1478" result="shape"/>
</filter>
</defs>
</svg>
