<svg width="18" height="20" viewBox="0 0 18 20" fill="none" xmlns="http://www.w3.org/2000/svg">
<mask id="path-1-inside-1_5471_1795" fill="white">
<path d="M8 17C8 16.4477 8.44772 16 9 16H17C17.5523 16 18 16.4477 18 17V18C18 19.1046 17.1046 20 16 20H10C8.89543 20 8 19.1046 8 18V17Z"/>
</mask>
<path d="M8 17C8 16.4477 8.44772 16 9 16H17C17.5523 16 18 16.4477 18 17V18C18 19.1046 17.1046 20 16 20H10C8.89543 20 8 19.1046 8 18V17Z" stroke="#4E4B66" stroke-width="2.4" mask="url(#path-1-inside-1_5471_1795)"/>
<mask id="path-2-inside-2_5471_1795" fill="white">
<path d="M0 7C0 6.44772 0.447715 6 1 6H16C17.1046 6 18 6.89543 18 8V12C18 13.1046 17.1046 14 16 14H2C0.89543 14 0 13.1046 0 12V7Z"/>
</mask>
<path d="M0 7C0 6.44772 0.447715 6 1 6H16C17.1046 6 18 6.89543 18 8V12C18 13.1046 17.1046 14 16 14H2C0.89543 14 0 13.1046 0 12V7Z" stroke="#4E4B66" stroke-width="3" mask="url(#path-2-inside-2_5471_1795)"/>
<mask id="path-3-inside-3_5471_1795" fill="white">
<path d="M0 2C0 0.895431 0.895431 0 2 0H8C9.10457 0 10 0.895431 10 2V3C10 3.55228 9.55229 4 9 4H1C0.447715 4 0 3.55228 0 3V2Z"/>
</mask>
<path d="M0 2C0 0.895431 0.895431 0 2 0H8C9.10457 0 10 0.895431 10 2V3C10 3.55228 9.55229 4 9 4H1C0.447715 4 0 3.55228 0 3V2Z" stroke="#4E4B66" stroke-width="2.4" mask="url(#path-3-inside-3_5471_1795)"/>
</svg>
